<svg width="24" height="24" viewBox="0 0 24 24" fill="none" xmlns="http://www.w3.org/2000/svg">
  <path d="M8 22C8.55228 22 9 21.5523 9 21C9 20.4477 8.55228 20 8 20C7.44772 20 7 20.4477 7 21C7 21.5523 7.44772 22 8 22Z" stroke="#D4AF37" stroke-width="2" fill="white"/>
  <path d="M19 22C19.5523 22 20 21.5523 20 21C20 20.4477 19.5523 20 19 20C18.4477 20 18 20.4477 18 21C18 21.5523 18.4477 22 19 22Z" stroke="#D4AF37" stroke-width="2" fill="white"/>
  <path d="M2 2H5L7.5 16H19.5L22 6H6" stroke="#D4AF37" stroke-width="2" stroke-linecap="round" fill="none"/>
</svg>