<svg width="400" height="120" viewBox="0 0 400 120" fill="none" xmlns="http://www.w3.org/2000/svg">
  <!-- Background (transparent) -->
  
  <!-- Decorative Diya Element - Gold -->
  <g opacity="0.15">
    <path d="M50 40L70 20L90 40L80 60L60 60L50 40Z" fill="#D4AF37"/>
    <circle cx="70" cy="35" r="6" fill="#FF8C42"/>
  </g>
  
  <!-- Decorative Diya Element - Right Side -->
  <g opacity="0.1">
    <path d="M340 80L360 60L380 80L370 100L350 100L340 80Z" fill="#D4AF37"/>
    <circle cx="360" cy="75" r="6" fill="#FF8C42"/>
  </g>
  
  <!-- Main Text: MADHAV PRAJAPATI -->
  <text x="120" y="50" font-family="Inter, 'Segoe UI', Helvetica, Arial, sans-serif" font-size="32" font-weight="700" letter-spacing="1" fill="#0F0F0F">
    MADHAV PRAJAPATI
  </text>
  
  <!-- Main Text: ART -->
  <text x="120" y="90" font-family="Inter, 'Segoe UI', Helvetica, Arial, sans-serif" font-size="48" font-weight="800" letter-spacing="4" fill="#D4AF37">
    ART
  </text>
  
  <!-- Decorative Line Under ART -->
  <line x1="120" y1="100" x2="240" y2="100" stroke="#D4AF37" stroke-width="3" stroke-linecap="round"/>
  <line x1="245" y1="100" x2="250" y2="100" stroke="#FF8C42" stroke-width="3" stroke-linecap="round"/>
  
  <!-- Small Diya Icon Next to ART -->
  <g transform="translate(260, 75) scale(0.5)">
    <path d="M12 25L20 15L28 25L24 32L16 32L12 25Z" fill="#D4AF37"/>
    <circle cx="20" cy="22" r="4" fill="#FF8C42"/>
  </g>
  
  <!-- Optional: Subtle Gold Dot Pattern -->
  <circle cx="30" cy="95" r="2" fill="#D4AF37" opacity="0.3"/>
  <circle cx="38" cy="88" r="2" fill="#D4AF37" opacity="0.3"/>
  <circle cx="45" cy="82" r="2" fill="#D4AF37" opacity="0.3"/>
</svg>